<?xml version="1.0" standalone="no"?><!DOCTYPE svg PUBLIC "-//W3C//DTD SVG 1.1//EN" "http://www.w3.org/Graphics/SVG/1.1/DTD/svg11.dtd"><svg t="1502865568375" class="icon" style="" viewBox="0 0 1024 1024" version="1.1" xmlns="http://www.w3.org/2000/svg" p-id="1212" xmlns:xlink="http://www.w3.org/1999/xlink" width="32" height="32"><defs><style type="text/css"></style></defs><path d="M170.453333 320.213333a21.354667 21.354667 0 0 1-20.906666-17.173333L107.093333 89.514667a21.312 21.312 0 0 1 29.568-23.658667l192 85.333333a21.312 21.312 0 0 1 5.226667 35.690667l-149.546667 128.234667c-3.925333 3.370667-8.853333 5.12-13.866666 5.12zM853.546667 320.213333c-5.034667 0-9.962667-1.749333-13.909334-5.12l-149.546666-128.213333a21.354667 21.354667 0 0 1 5.248-35.712l192-85.333333a21.333333 21.333333 0 0 1 29.568 23.658666l-42.453334 213.546667a21.354667 21.354667 0 0 1-20.906666 17.194667z" fill="#444444" p-id="1213"></path><path d="M512 1002.666667C264.96 1002.666667 64 801.706667 64 554.666667S264.96 106.666667 512 106.666667s448 200.96 448 448-200.96 448-448 448z" fill="#FA645A" p-id="1214"></path><path d="M512 832c-105.856 0-192-86.144-192-192a21.333333 21.333333 0 0 1 21.333333-21.333333h341.333334a21.333333 21.333333 0 0 1 21.333333 21.333333c0 105.856-86.144 192-192 192z" fill="#FA645A" p-id="1215"></path><path d="M512 832c-105.856 0-192-86.144-192-192a21.333333 21.333333 0 0 1 21.333333-21.333333h341.333334a21.333333 21.333333 0 0 1 21.333333 21.333333c0 105.856-86.144 192-192 192z" fill="#AE453E" p-id="1216"></path><path d="M704 640a21.333333 21.333333 0 0 0-21.333333-21.333333H341.333333a21.333333 21.333333 0 0 0-21.333333 21.333333v21.333333h384v-21.333333z" fill="#FFFFFF" p-id="1217"></path><path d="M274.752 362.666667A64 64 0 1 0 384 407.914667L274.730667 362.666667zM749.248 362.666667A64 64 0 1 1 640 407.914667L749.269333 362.666667z" fill="#444444" p-id="1218"></path></svg>